:SAMPLES-PER-SECOND 30
:FULLY-SPECIFIED
:DEGREES
220
root  3.45555 34.5671 -62.9687 -174.125 1.55664 -179.327
RightUpLeg  -7.17058 -9.16319 -2.43362
RightLeg  7.34935 -2.68851 -0.170835
RightFoot  6.436 0.0348342 -0.145861
RightToes  -26.9099 -0.117358 -0.230776
Spine  -0.97123 0.1672 0.832524
Spine1  -2.02375 0.467277 2.15207
HEad  -63.8112 2.59908 3.33842
LeftShoulder1  -1.94126e-019 -3.10601e-018 -2.51263e-017
LeftArm  -14.4028 20.4106 -79.7924
LeftForeArm  31.7977 -17.6432 -3.00203
LeftHand  -0.444085 -1.38307 7.77161
RightShoulder  -4.96962e-017 0 -2.36833e-017
RightArm  -28.5577 -18.7536 73.3365
RightForeArm  57.408 12.8536 1.39283
RightHand  -0.357051 -1.57306 -10.7244
LeftUpLeg  -5.19736 -6.23595 5.90463
LeftLeg  9.61581 10.3919 1.07275
LeftFoot  4.64411 -0.00751184 0.965042
LeftToes  -25.7452 1.31378e-006 1.14341e-007
221
root  3.46482 34.5662 -62.9261 -174.12 1.66907 -179.329
RightUpLeg  -7.34132 -9.02197 -2.40311
RightLeg  7.50957 -2.71949 -0.180446
RightFoot  6.41498 0.0350809 -0.148104
RightToes  -26.8694 -0.117604 -0.230443
Spine  -0.957127 0.162983 0.823285
Spine1  -1.99775 0.45956 2.13046
HEad  -64.0662 2.60033 3.49867
LeftShoulder1  -1.94126e-019 -3.10601e-018 -2.51263e-017
LeftArm  -14.5754 20.4141 -79.7745
LeftForeArm  31.7911 -17.575 -2.98227
LeftHand  -0.447161 -1.37079 7.81639
RightShoulder  -4.96962e-017 0 -2.36833e-017
RightArm  -28.6739 -18.7509 73.4029
RightForeArm  57.5508 12.8639 1.39062
RightHand  -0.356122 -1.5885 -10.7378
LeftUpLeg  -5.23551 -6.1172 5.9288
LeftLeg  9.59614 10.3772 1.06767
LeftFoot  4.67712 -0.00797939 0.969084
LeftToes  -25.7378 1.31378e-006 1.14341e-007
222
root  3.47439 34.5657 -62.8819 -174.014 1.77513 -179.33
RightUpLeg  -7.64295 -9.10506 -2.36295
RightLeg  7.71081 -2.52956 -0.176708
RightFoot  6.38126 0.0336614 -0.126163
RightToes  -26.8207 -0.117869 -0.230137
Spine  -0.934851 0.162518 0.800272
Spine1  -1.95423 0.457579 2.08525
HEad  -64.5589 2.58069 3.70195
LeftShoulder1  -1.94126e-019 -3.10601e-018 -2.51263e-017
LeftArm  -15.3294 20.4118 -79.8395
LeftForeArm  31.6816 -17.5751 -2.97405
LeftHand  -0.450233 -1.39029 7.8693
RightShoulder  -4.96962e-017 0 -2.36833e-017
RightArm  -28.7444 -18.7299 73.5475
RightForeArm  57.6623 12.9261 1.38236
RightHand  -0.355469 -1.6007 -10.7799
LeftUpLeg  -5.4175 -5.83471 5.96054
LeftLeg  9.64159 10.2215 1.05995
LeftFoot  4.705 -0.00769735 0.96084
LeftToes  -25.8326 1.31378e-006 1.14341e-007
223
root  3.48594 34.5649 -62.8386 -173.944 1.76572 -179.329
RightUpLeg  -7.80879 -9.0929 -2.32699
RightLeg  7.76055 -2.56143 -0.181179
RightFoot  6.39131 0.034045 -0.129593
RightToes  -26.8425 -0.118153 -0.229863
Spine  -0.915599 0.130029 0.782006
Spine1  -1.91656 0.390461 2.0539
HEad  -64.9995 2.47666 3.85922
LeftShoulder1  -1.94126e-019 -3.10601e-018 -2.51263e-017
LeftArm  -15.957 20.49 -79.9741
LeftForeArm  31.0777 -17.6374 -2.97482
LeftHand  -0.448761 -1.2208 8.03155
RightShoulder  -4.96962e-017 0 -2.36833e-017
RightArm  -28.2226 -18.8485 73.707
RightForeArm  57.3985 13.1464 1.35704
RightHand  -0.357359 -1.60027 -10.76
LeftUpLeg  -5.59369 -5.79057 5.98989
LeftLeg  9.70684 10.1735 1.06666
LeftFoot  4.73271 -0.00808216 0.962314
LeftToes  -25.9025 1.31378e-006 1.14341e-007
224
root  3.50192 34.564 -62.7913 -173.868 1.71887 -179.321
RightUpLeg  -7.95184 -9.08537 -2.27084
RightLeg  7.75456 -2.62086 -0.185128
RightFoot  6.44149 0.0348184 -0.138172
RightToes  -26.8953 -0.118458 -0.229625
Spine  -0.909336 0.102272 0.758499
Spine1  -1.90513 0.333084 2.00903
HEad  -65.3983 2.20286 4.05123
LeftShoulder1  -1.94126e-019 -3.10601e-018 -2.51263e-017
LeftArm  -16.5164 20.4994 -80.1587
LeftForeArm  30.9883 -17.442 -2.94983
LeftHand  -0.452076 -1.26312 7.99254
RightShoulder  -4.96962e-017 0 -2.36833e-017
RightArm  -27.8555 -19.0357 73.9729
RightForeArm  57.2613 13.2964 1.33875
RightHand  -0.362614 -1.45075 -10.6476
LeftUpLeg  -5.78177 -5.93462 6.03741
LeftLeg  9.76373 10.2929 1.08933
LeftFoot  4.7834 -0.00965293 0.981566
LeftToes  -25.993 1.31378e-006 1.14341e-007
225
root  3.51345 34.5627 -62.7604 -173.861 1.69273 -179.329
RightUpLeg  -8.01225 -9.11581 -2.24849
RightLeg  7.7717 -2.61807 -0.185717
RightFoot  6.45716 0.0350311 -0.13829
RightToes  -26.9192 -0.118785 -0.229427
Spine  -0.893288 0.0844038 0.746877
Spine1  -1.87398 0.294289 1.9898
HEad  -65.64 1.9934 4.15954
LeftShoulder1  -1.94126e-019 -3.10601e-018 -2.51263e-017
LeftArm  -16.45 20.5037 -80.3279
LeftForeArm  31.1067 -17.196 -2.90894
LeftHand  -0.453689 -1.26212 7.99728
RightShoulder  -4.96962e-017 0 -2.36833e-017
RightArm  -27.8877 -19.135 74.1981
RightForeArm  57.3481 13.2946 1.33825
RightHand  -0.362812 -1.49274 -10.6845
LeftUpLeg  -5.8579 -5.99471 6.05521
LeftLeg  9.79037 10.3263 1.09765
LeftFoot  4.82689 -0.0107259 0.992413
LeftToes  -26.051 1.31378e-006 1.14341e-007
226
root  3.52525 34.5605 -62.7273 -173.807 1.62497 -179.339
RightUpLeg  -8.13535 -9.12128 -2.2196
RightLeg  7.82403 -2.6854 -0.19298
RightFoot  6.45213 0.0353208 -0.139033
RightToes  -26.8982 -0.119133 -0.229272
Spine  -0.90583 0.0479937 0.737934
Spine1  -1.90018 0.220331 1.97417
HEad  -65.6826 1.84959 4.2521
LeftShoulder1  -1.94126e-019 -3.10601e-018 -2.51263e-017
LeftArm  -16.4536 20.546 -80.499
LeftForeArm  31.3837 -16.9506 -2.87085
LeftHand  -0.457489 -1.3947 7.93925
RightShoulder  -4.96962e-017 0 -2.36833e-017
RightArm  -28.093 -19.2139 74.4124
RightForeArm  57.5057 13.1942 1.3499
RightHand  -0.365249 -1.45475 -10.6566
LeftUpLeg  -6.04182 -5.97433 6.08687
LeftLeg  9.91007 10.2412 1.1102
LeftFoot  4.84124 -0.0108245 0.987436
LeftToes  -26.1174 1.31378e-006 1.14341e-007
227
root  3.53716 34.5563 -62.6981 -173.758 1.58945 -179.336
RightUpLeg  -8.29911 -9.17559 -2.18229
RightLeg  7.9683 -2.66372 -0.198158
RightFoot  6.40585 0.0356855 -0.140348
RightToes  -26.8826 -0.119504 -0.229165
Spine  -0.951824 0.0400093 0.727735
Spine1  -1.99332 0.203336 1.95521
HEad  -65.5102 1.68107 4.42439
LeftShoulder1  -1.94126e-019 -3.10601e-018 -2.51263e-017
LeftArm  -16.4013 20.6952 -80.6152
LeftForeArm  31.4753 -16.9008 -2.85829
LeftHand  -0.461914 -1.46307 7.81871
RightShoulder  -4.96962e-017 0 -2.36833e-017
RightArm  -28.4223 -19.363 74.6125
RightForeArm  57.8156 13.0485 1.36598
RightHand  -0.365633 -1.46901 -10.6968
LeftUpLeg  -6.20717 -5.97733 6.12128
LeftLeg  10.0315 10.2292 1.13071
LeftFoot  4.83988 -0.0112379 0.986665
LeftToes  -26.238 1.31378e-006 1.14341e-007
228
root  3.54538 34.5558 -62.6813 -173.75 1.5589 -179.335
RightUpLeg  -8.37432 -9.16448 -2.16342
RightLeg  8.06182 -2.69934 -0.20525
RightFoot  6.3787 0.0361635 -0.142758
RightToes  -26.8515 -0.1199 -0.22911
Spine  -0.968974 0.0296745 0.711972
Spine1  -2.02838 0.179853 1.92698
HEad  -65.2822 1.52669 4.60183
LeftShoulder1  -1.94126e-019 -3.10601e-018 -2.51263e-017
LeftArm  -16.4286 20.8093 -80.7056
LeftForeArm  31.4683 -16.8931 -2.85079
LeftHand  -0.460769 -1.49712 7.9228
RightShoulder  -4.96962e-017 0 -2.36833e-017
RightArm  -28.5458 -19.5215 74.8007
RightForeArm  57.8753 13.0206 1.36908
RightHand  -0.368024 -1.49051 -10.6732
LeftUpLeg  -6.26559 -6.02314 6.13854
LeftLeg  10.064 10.2503 1.13887
LeftFoot  4.86564 -0.011808 0.987628
LeftToes  -26.2313 1.31378e-006 1.14341e-007
229
root  3.54831 34.5556 -62.6628 -173.755 1.49385 -179.333
RightUpLeg  -8.43179 -9.15442 -2.15071
RightLeg  8.14759 -2.776 -0.215283
RightFoot  6.35965 0.0370223 -0.150056
RightToes  -26.7708 -0.120319 -0.22911
Spine  -0.972223 0.0285746 0.687027
Spine1  -2.03452 0.173054 1.88268
HEad  -65.0986 1.31237 4.81085
LeftShoulder1  -1.94126e-019 -3.10601e-018 -2.51263e-017
LeftArm  -16.3474 20.8835 -80.7084
LeftForeArm  31.3983 -17.0147 -2.86431
LeftHand  -0.461511 -1.42858 7.89686
RightShoulder  -4.96962e-017 0 -2.36833e-017
RightArm  -28.5884 -19.7519 74.9915
RightForeArm  57.8092 13.1327 1.35531
RightHand  -0.368441 -1.44236 -10.7042
LeftUpLeg  -6.32959 -6.02955 6.15823
LeftLeg  10.1122 10.1811 1.13988
LeftFoot  4.87812 -0.0123937 0.988124
LeftToes  -26.2284 1.31378e-006 1.14341e-007
230
root  3.54658 34.5555 -62.6415 -173.773 1.39645 -179.332
RightUpLeg  -8.48523 -9.12512 -2.15017
RightLeg  8.25513 -2.89334 -0.229881
RightFoot  6.3497 0.0382588 -0.162178
RightToes  -26.8383 -0.120765 -0.22917
Spine  -0.956796 0.0288372 0.662847
Spine1  -2.00326 0.168978 1.83879
HEad  -64.9785 1.06907 4.98935
LeftShoulder1  -1.94126e-019 -3.10601e-018 -2.51263e-017
LeftArm  -16.3205 20.8471 -80.6754
LeftForeArm  31.3872 -17.0711 -2.87027
LeftHand  -0.463534 -1.48543 7.85402
RightShoulder  -4.96962e-017 0 -2.36833e-017
RightArm  -28.3886 -19.9891 75.1322
RightForeArm  57.5973 13.3437 1.32945
RightHand  -0.37206 -1.36237 -10.6204
LeftUpLeg  -6.41036 -6.10573 6.16687
LeftLeg  10.1955 10.155 1.14999
LeftFoot  4.88369 -0.0129185 0.986955
LeftToes  -26.2469 1.31378e-006 1.14341e-007
231
root  3.54219 34.5555 -62.6198 -173.802 1.28387 -179.331
RightUpLeg  -8.53849 -9.14673 -2.16254
RightLeg  8.3866 -2.97049 -0.242892
RightFoot  6.29944 0.0390855 -0.167836
RightToes  -26.7835 -0.121236 -0.229294
Spine  -0.933618 0.0147653 0.64573
Spine1  -1.95724 0.138041 1.80592
HEad  -64.8608 0.912997 5.06831
LeftShoulder1  -1.94126e-019 -3.10601e-018 -2.51263e-017
LeftArm  -16.3887 20.7777 -80.6214
LeftForeArm  31.3315 -17.0646 -2.86932
LeftHand  -0.464233 -1.51623 7.85598
RightShoulder  -4.96962e-017 0 -2.36833e-017
RightArm  -28.1776 -20.1231 75.205
RightForeArm  57.5109 13.4693 1.31336
RightHand  -0.374328 -1.31861 -10.5532
LeftUpLeg  -6.50939 -6.15542 6.16669
LeftLeg  10.324 10.091 1.16743
LeftFoot  4.86064 -0.0129256 0.977007
LeftToes  -26.2233 1.31378e-006 1.14341e-007
232
root  3.53663 34.5553 -62.6042 -173.825 1.21082 -179.332
RightUpLeg  -8.57246 -9.11954 -2.16853
RightLeg  8.47659 -3.07443 -0.256278
RightFoot  6.28559 0.0402861 -0.178212
RightToes  -26.743 -0.121734 -0.229485
Spine  -0.918966 0.0085583 0.639852
Spine1  -1.928 0.123732 1.79445
HEad  -64.7712 0.852481 5.11363
LeftShoulder1  -1.94126e-019 -3.10601e-018 -2.51263e-017
LeftArm  -16.3606 20.7334 -80.5859
LeftForeArm  31.4071 -17.0707 -2.8696
LeftHand  -0.461655 -1.39618 7.94469
RightShoulder  -4.96962e-017 0 -2.36833e-017
RightArm  -28.0835 -20.183 75.2076
RightForeArm  57.5202 13.4889 1.31059
RightHand  -0.37316 -1.30251 -10.571
LeftUpLeg  -6.56009 -6.19102 6.16739
LeftLeg  10.3856 10.0534 1.17401
LeftFoot  4.85818 -0.0133613 0.972978
LeftToes  -26.2617 1.31378e-006 1.14341e-007
233
root  3.53386 34.5549 -62.5862 -173.851 1.1286 -179.333
RightUpLeg  -8.63318 -9.1395 -2.17028
RightLeg  8.61986 -3.12998 -0.268805
RightFoot  6.23754 0.0407172 -0.176936
RightToes  -26.682 -0.12226 -0.229748
Spine  -0.909796 0.00320311 0.634639
Spine1  -1.90963 0.111201 1.78326
HEad  -64.5275 0.831731 5.09066
LeftShoulder1  -1.94126e-019 -3.10601e-018 -2.51263e-017
LeftArm  -16.4101 20.7011 -80.4885
LeftForeArm  31.4813 -17.0542 -2.86957
LeftHand  -0.461714 -1.4642 7.98487
RightShoulder  -4.96962e-017 0 -2.36833e-017
RightArm  -28.0977 -20.2311 75.1832
RightForeArm  57.5784 13.4419 1.31642
RightHand  -0.369899 -1.34304 -10.6362
LeftUpLeg  -6.60456 -6.23312 6.18314
LeftLeg  10.4261 9.97482 1.17202
LeftFoot  4.88199 -0.0138926 0.969683
LeftToes  -26.4082 1.31378e-006 1.14341e-007
234
root  3.53468 34.5535 -62.5692 -173.871 1.06551 -179.336
RightUpLeg  -8.70913 -9.227 -2.1651
RightLeg  8.77586 -3.09801 -0.274556
RightFoot  6.17958 0.0408641 -0.170917
RightToes  -26.7097 -0.122814 -0.230086
Spine  -0.912056 0.00601827 0.627046
Spine1  -1.91422 0.115527 1.76644
HEad  -64.1963 0.861267 5.08174
LeftShoulder1  -1.94126e-019 -3.10601e-018 -2.51263e-017
LeftArm  -16.4223 20.7413 -80.3537
LeftForeArm  31.5945 -17.1363 -2.88134
LeftHand  -0.459999 -1.39738 8.02886
RightShoulder  -4.96962e-017 0 -2.36833e-017
RightArm  -28.3276 -20.2614 75.1544
RightForeArm  57.6689 13.344 1.32876
RightHand  -0.369009 -1.35621 -10.6191
LeftUpLeg  -6.62707 -6.36876 6.1986
LeftLeg  10.4351 10.0222 1.17911
LeftFoot  4.90491 -0.0151677 0.977185
LeftToes  -26.5111 1.31378e-006 1.14341e-007
